<mxfile host="65bd71144e">
    <diagram id="Gih7iKVNsT4u7ENvWJo_" name="Page-1">
        <mxGraphModel dx="1102" dy="731" grid="1" gridSize="10" guides="1" tooltips="1" connect="1" arrows="1" fold="1" page="1" pageScale="1" pageWidth="1200" pageHeight="1920" math="0" shadow="0">
            <root>
                <mxCell id="0"/>
                <mxCell id="1" parent="0"/>
                <mxCell id="77" value="&lt;font style=&quot;font-size: 24px; color: rgb(255, 255, 255);&quot;&gt;64&lt;/font&gt;" style="rounded=1;whiteSpace=wrap;html=1;resizeHeight=0;strokeOpacity=100;fillOpacity=100;strokeColor=none;gradientColor=none;fillColor=#97D077;" parent="1" vertex="1">
                    <mxGeometry x="360" y="600" width="40" height="40" as="geometry"/>
                </mxCell>
                <mxCell id="78" value="&lt;font style=&quot;font-size: 24px; color: rgb(255, 255, 255);&quot;&gt;34&lt;/font&gt;" style="rounded=1;whiteSpace=wrap;html=1;resizeHeight=0;strokeOpacity=100;fillOpacity=100;strokeColor=none;gradientColor=none;fillColor=#97D077;" parent="1" vertex="1">
                    <mxGeometry x="400" y="600" width="40" height="40" as="geometry"/>
                </mxCell>
                <mxCell id="79" value="&lt;font style=&quot;font-size: 24px; color: rgb(255, 255, 255);&quot;&gt;25&lt;/font&gt;" style="rounded=1;whiteSpace=wrap;html=1;resizeHeight=0;strokeOpacity=100;fillOpacity=100;strokeColor=none;gradientColor=none;fillColor=#97D077;" parent="1" vertex="1">
                    <mxGeometry x="440" y="600" width="40" height="40" as="geometry"/>
                </mxCell>
                <mxCell id="80" value="&lt;font style=&quot;font-size: 24px; color: rgb(255, 255, 255);&quot;&gt;12&lt;/font&gt;" style="rounded=1;whiteSpace=wrap;html=1;resizeHeight=0;strokeOpacity=100;fillOpacity=100;strokeColor=none;gradientColor=none;fillColor=#97D077;" parent="1" vertex="1">
                    <mxGeometry x="480" y="600" width="40" height="40" as="geometry"/>
                </mxCell>
                <mxCell id="81" value="&lt;font style=&quot;font-size: 24px; color: rgb(255, 255, 255);&quot;&gt;22&lt;/font&gt;" style="rounded=1;whiteSpace=wrap;html=1;resizeHeight=0;strokeOpacity=100;fillOpacity=100;strokeColor=none;gradientColor=none;fillColor=#97D077;" parent="1" vertex="1">
                    <mxGeometry x="520" y="600" width="40" height="40" as="geometry"/>
                </mxCell>
                <mxCell id="82" value="&lt;font style=&quot;font-size: 24px; color: rgb(255, 255, 255);&quot;&gt;11&lt;/font&gt;" style="rounded=1;whiteSpace=wrap;html=1;resizeHeight=0;strokeOpacity=100;fillOpacity=100;strokeColor=none;gradientColor=none;fillColor=#97D077;" parent="1" vertex="1">
                    <mxGeometry x="560" y="600" width="40" height="40" as="geometry"/>
                </mxCell>
                <mxCell id="83" value="&lt;font style=&quot;font-size: 24px; color: rgb(255, 255, 255);&quot;&gt;90&lt;/font&gt;" style="rounded=1;whiteSpace=wrap;html=1;resizeHeight=0;strokeOpacity=100;fillOpacity=100;strokeColor=none;gradientColor=none;fillColor=#97D077;" parent="1" vertex="1">
                    <mxGeometry x="600" y="600" width="40" height="40" as="geometry"/>
                </mxCell>
                <mxCell id="84" value="&lt;font style=&quot;font-size: 18px;&quot;&gt;&lt;b&gt;希尔排序（Shell Sort）&lt;/b&gt;&lt;/font&gt;" style="text;html=1;align=center;verticalAlign=middle;whiteSpace=wrap;rounded=0;" parent="1" vertex="1">
                    <mxGeometry x="240" y="440" width="680" height="40" as="geometry"/>
                </mxCell>
                <mxCell id="85" value="&lt;b&gt;初始数组&lt;/b&gt;" style="text;html=1;align=left;verticalAlign=middle;whiteSpace=wrap;rounded=0;" parent="1" vertex="1">
                    <mxGeometry x="240" y="600" width="80" height="40" as="geometry"/>
                </mxCell>
                <mxCell id="86" value="&lt;b&gt;&lt;font style=&quot;color: rgb(0, 0, 0);&quot;&gt;第1次进行分组&lt;/font&gt;&lt;/b&gt;&lt;div&gt;&lt;b&gt;&lt;font style=&quot;color: rgb(0, 0, 0);&quot;&gt;gap = len/2 = 5&lt;/font&gt;&lt;/b&gt;&lt;/div&gt;" style="text;html=1;align=left;verticalAlign=middle;whiteSpace=wrap;rounded=0;" parent="1" vertex="1">
                    <mxGeometry x="240" y="799.96" width="120" height="40" as="geometry"/>
                </mxCell>
                <mxCell id="87" value="&lt;b&gt;数组变量&lt;/b&gt;" style="text;html=1;align=left;verticalAlign=middle;whiteSpace=wrap;rounded=0;" parent="1" vertex="1">
                    <mxGeometry x="240" y="520" width="80" height="40" as="geometry"/>
                </mxCell>
                <mxCell id="88" value="&lt;div style=&quot;background-color: rgb(255, 255, 255); color: rgb(8, 8, 8);&quot;&gt;&lt;pre style=&quot;font-family:&#39;JetBrains Mono&#39;,monospace;font-size:12.0pt;&quot;&gt;&lt;div style=&quot;color: rgb(8, 8, 8);&quot;&gt;&lt;pre style=&quot;font-family:&#39;JetBrains Mono&#39;,monospace;font-size:12.0pt;&quot;&gt;&lt;span style=&quot;color:#0033b3;&quot;&gt;int &lt;/span&gt;&lt;span style=&quot;color:#000000;&quot;&gt;arr&lt;/span&gt;&lt;span style=&quot;color:#3f9101;&quot;&gt;[] &lt;/span&gt;= &lt;span style=&quot;color:#0e4a8e;&quot;&gt;{&lt;/span&gt;&lt;span style=&quot;color:#1750eb;&quot;&gt;64&lt;/span&gt;, &lt;span style=&quot;color:#1750eb;&quot;&gt;34&lt;/span&gt;, &lt;span style=&quot;color:#1750eb;&quot;&gt;25&lt;/span&gt;, &lt;span style=&quot;color:#1750eb;&quot;&gt;12&lt;/span&gt;, &lt;span style=&quot;color:#1750eb;&quot;&gt;22&lt;/span&gt;, &lt;span style=&quot;color:#1750eb;&quot;&gt;11&lt;/span&gt;, &lt;span style=&quot;color:#1750eb;&quot;&gt;90&lt;/span&gt;, &lt;span style=&quot;color:#1750eb;&quot;&gt;66&lt;/span&gt;, &lt;span style=&quot;color:#1750eb;&quot;&gt;39&lt;/span&gt;, &lt;span style=&quot;color:#1750eb;&quot;&gt;48&lt;/span&gt;, &lt;span style=&quot;color:#1750eb;&quot;&gt;56&lt;/span&gt;&lt;span style=&quot;color:#0e4a8e;&quot;&gt;}&lt;/span&gt;;&lt;br&gt;&lt;span style=&quot;color:#0033b3;&quot;&gt;int &lt;/span&gt;&lt;span style=&quot;color:#000000;&quot;&gt;len &lt;/span&gt;= &lt;span style=&quot;color:#0033b3;&quot;&gt;sizeof&lt;/span&gt;&lt;span style=&quot;color:#3f9101;&quot;&gt;(&lt;/span&gt;&lt;span style=&quot;color:#000000;&quot;&gt;arr&lt;/span&gt;&lt;span style=&quot;color:#3f9101;&quot;&gt;) &lt;/span&gt;/ &lt;span style=&quot;color:#0033b3;&quot;&gt;sizeof&lt;/span&gt;&lt;span style=&quot;color:#3f9101;&quot;&gt;(&lt;/span&gt;&lt;span style=&quot;color:#000000;&quot;&gt;arr&lt;/span&gt;&lt;span style=&quot;color:#3f9101;&quot;&gt;[&lt;/span&gt;&lt;span style=&quot;color:#1750eb;&quot;&gt;0&lt;/span&gt;&lt;span style=&quot;color:#3f9101;&quot;&gt;])&lt;/span&gt;;&lt;/pre&gt;&lt;/div&gt;&lt;/pre&gt;&lt;/div&gt;" style="text;html=1;align=left;verticalAlign=middle;resizable=0;points=[];autosize=1;strokeColor=none;fillColor=none;" parent="1" vertex="1">
                    <mxGeometry x="360" y="500" width="520" height="80" as="geometry"/>
                </mxCell>
                <mxCell id="157" style="edgeStyle=elbowEdgeStyle;elbow=vertical;html=1;exitX=0.5;exitY=1;exitDx=0;exitDy=0;entryX=0.5;entryY=1;entryDx=0;entryDy=0;startArrow=classic;startFill=1;strokeColor=#66B2FF;" parent="1" source="91" target="98" edge="1">
                    <mxGeometry relative="1" as="geometry">
                        <Array as="points">
                            <mxPoint x="480" y="850"/>
                        </Array>
                    </mxGeometry>
                </mxCell>
                <mxCell id="158" style="edgeStyle=elbowEdgeStyle;elbow=vertical;html=1;exitX=0.5;exitY=1;exitDx=0;exitDy=0;entryX=0.5;entryY=1;entryDx=0;entryDy=0;startArrow=classic;startFill=1;strokeColor=#66B2FF;" parent="1" edge="1">
                    <mxGeometry relative="1" as="geometry">
                        <mxPoint x="380" y="800" as="sourcePoint"/>
                        <mxPoint x="780" y="800.04" as="targetPoint"/>
                        <Array as="points">
                            <mxPoint x="580" y="850"/>
                        </Array>
                    </mxGeometry>
                </mxCell>
                <mxCell id="91" value="&lt;font style=&quot;font-size: 24px; color: rgb(255, 255, 255);&quot;&gt;64&lt;/font&gt;" style="rounded=1;whiteSpace=wrap;html=1;resizeHeight=0;strokeOpacity=100;fillOpacity=100;strokeColor=none;gradientColor=none;fillColor=#66B2FF;" parent="1" vertex="1">
                    <mxGeometry x="360" y="759.96" width="40" height="40" as="geometry"/>
                </mxCell>
                <mxCell id="159" style="edgeStyle=elbowEdgeStyle;elbow=vertical;html=1;exitX=0.5;exitY=1;exitDx=0;exitDy=0;entryX=0.5;entryY=1;entryDx=0;entryDy=0;strokeColor=#FF9933;" parent="1" source="93" target="99" edge="1">
                    <mxGeometry relative="1" as="geometry">
                        <Array as="points">
                            <mxPoint x="520" y="840"/>
                        </Array>
                    </mxGeometry>
                </mxCell>
                <mxCell id="93" value="&lt;font style=&quot;font-size: 24px; color: rgb(255, 255, 255);&quot;&gt;34&lt;/font&gt;" style="rounded=1;whiteSpace=wrap;html=1;resizeHeight=0;strokeOpacity=100;fillOpacity=100;strokeColor=none;gradientColor=none;fillColor=#FF9933;" parent="1" vertex="1">
                    <mxGeometry x="400" y="759.96" width="40" height="40" as="geometry"/>
                </mxCell>
                <mxCell id="160" style="edgeStyle=elbowEdgeStyle;elbow=vertical;html=1;exitX=0.5;exitY=1;exitDx=0;exitDy=0;entryX=0.5;entryY=1;entryDx=0;entryDy=0;strokeColor=#B266FF;" parent="1" source="95" target="145" edge="1">
                    <mxGeometry relative="1" as="geometry">
                        <Array as="points">
                            <mxPoint x="560" y="830"/>
                        </Array>
                    </mxGeometry>
                </mxCell>
                <mxCell id="95" value="&lt;font style=&quot;font-size: 24px; color: rgb(255, 255, 255);&quot;&gt;25&lt;/font&gt;" style="rounded=1;whiteSpace=wrap;html=1;resizeHeight=0;strokeOpacity=100;fillOpacity=100;strokeColor=none;gradientColor=none;fillColor=#B266FF;" parent="1" vertex="1">
                    <mxGeometry x="440" y="759.96" width="40" height="40" as="geometry"/>
                </mxCell>
                <mxCell id="161" style="edgeStyle=elbowEdgeStyle;elbow=vertical;html=1;exitX=0.5;exitY=1;exitDx=0;exitDy=0;entryX=0.5;entryY=1;entryDx=0;entryDy=0;strokeColor=#CCCC00;" parent="1" source="96" target="146" edge="1">
                    <mxGeometry relative="1" as="geometry">
                        <Array as="points">
                            <mxPoint x="600" y="820"/>
                        </Array>
                    </mxGeometry>
                </mxCell>
                <mxCell id="96" value="&lt;font style=&quot;font-size: 24px; color: rgb(255, 255, 255);&quot;&gt;12&lt;/font&gt;" style="rounded=1;whiteSpace=wrap;html=1;resizeHeight=0;strokeOpacity=100;fillOpacity=100;strokeColor=none;gradientColor=none;fillColor=#CCCC00;" parent="1" vertex="1">
                    <mxGeometry x="480" y="759.96" width="40" height="40" as="geometry"/>
                </mxCell>
                <mxCell id="162" style="edgeStyle=elbowEdgeStyle;elbow=vertical;html=1;exitX=0.5;exitY=1;exitDx=0;exitDy=0;entryX=0.5;entryY=1;entryDx=0;entryDy=0;strokeColor=#FF66B3;" parent="1" source="97" target="147" edge="1">
                    <mxGeometry relative="1" as="geometry">
                        <Array as="points">
                            <mxPoint x="640" y="810"/>
                        </Array>
                    </mxGeometry>
                </mxCell>
                <mxCell id="97" value="&lt;font style=&quot;font-size: 24px; color: rgb(255, 255, 255);&quot;&gt;22&lt;/font&gt;" style="rounded=1;whiteSpace=wrap;html=1;resizeHeight=0;strokeOpacity=100;fillOpacity=100;strokeColor=none;gradientColor=none;fillColor=#FF66B3;" parent="1" vertex="1">
                    <mxGeometry x="520" y="759.96" width="40" height="40" as="geometry"/>
                </mxCell>
                <mxCell id="98" value="&lt;font style=&quot;font-size: 24px; color: rgb(255, 255, 255);&quot;&gt;11&lt;/font&gt;" style="rounded=1;whiteSpace=wrap;html=1;resizeHeight=0;strokeOpacity=100;fillOpacity=100;strokeColor=none;gradientColor=none;fillColor=#66B2FF;" parent="1" vertex="1">
                    <mxGeometry x="560" y="759.96" width="40" height="40" as="geometry"/>
                </mxCell>
                <mxCell id="99" value="&lt;font style=&quot;font-size: 24px; color: rgb(255, 255, 255);&quot;&gt;90&lt;/font&gt;" style="rounded=1;whiteSpace=wrap;html=1;resizeHeight=0;strokeOpacity=100;fillOpacity=100;strokeColor=none;gradientColor=none;fillColor=#FF9933;" parent="1" vertex="1">
                    <mxGeometry x="600" y="759.96" width="40" height="40" as="geometry"/>
                </mxCell>
                <mxCell id="100" value="分成了3组，每一组5个元素，最后一组只有2个元素。依据 gap，每一组里相同位置的元素，使用插入排序进行比较。&lt;div&gt;&lt;font style=&quot;color: rgb(102, 178, 255);&quot;&gt;第1组里的64，第2组里的11，第3组里的56进行比较。&lt;/font&gt;&lt;/div&gt;&lt;div&gt;&lt;font style=&quot;color: rgb(255, 153, 51);&quot;&gt;第1组里的34，第2组里的90，第3组没有对应的元素，无需比较。&lt;/font&gt;&lt;/div&gt;&lt;div&gt;&lt;font style=&quot;color: rgb(178, 102, 255);&quot;&gt;第1组里的25，第2组里的66，第3组没有对应的元素，无需比较。&lt;/font&gt;&lt;/div&gt;&lt;div&gt;&lt;font style=&quot;color: rgb(204, 204, 0);&quot;&gt;第1组里的12，第2组里的39，第3组没有对应的元素，无需比较。&lt;/font&gt;&lt;/div&gt;&lt;div&gt;&lt;font&gt;&lt;font style=&quot;color: rgb(255, 102, 179);&quot;&gt;第1组里的22，第2组里的48，第3组没有对应的元素，无需比较。&lt;/font&gt;&lt;span style=&quot;color: rgb(178, 102, 255);&quot;&gt;&lt;/span&gt;&lt;/font&gt;&lt;/div&gt;&lt;div&gt;&lt;font style=&quot;color: rgb(0, 0, 0);&quot;&gt;即 &lt;/font&gt;&lt;font style=&quot;color: rgb(102, 178, 255);&quot;&gt;[64, 11, 56]&lt;/font&gt;&lt;font style=&quot;color: rgb(0, 0, 0);&quot;&gt;, &lt;/font&gt;&lt;font style=&quot;color: rgb(255, 153, 51);&quot;&gt;[34, 90]&lt;/font&gt;&lt;font style=&quot;color: rgb(0, 0, 0);&quot;&gt;, &lt;/font&gt;&lt;font style=&quot;color: rgb(178, 102, 255);&quot;&gt;[25, 66]&lt;/font&gt;&lt;font style=&quot;background-color: transparent; color: rgb(0, 0, 0);&quot;&gt;,&amp;nbsp;&lt;/font&gt;&lt;font style=&quot;background-color: transparent; color: rgb(204, 204, 0);&quot;&gt;[12, 39]&lt;/font&gt;&lt;font style=&quot;background-color: transparent; color: rgb(0, 0, 0);&quot;&gt;,&amp;nbsp;&lt;/font&gt;&lt;font style=&quot;background-color: transparent; color: rgb(178, 102, 255);&quot;&gt;&lt;font style=&quot;color: rgb(255, 102, 179);&quot;&gt;[22, 48]&lt;/font&gt;&amp;nbsp;&lt;/font&gt;&lt;span style=&quot;background-color: transparent;&quot;&gt;三个数组内比较排序，将小的数字，放在前边对应的索引位置上。&lt;/span&gt;&lt;/div&gt;" style="text;html=1;align=left;verticalAlign=middle;whiteSpace=wrap;rounded=0;" parent="1" vertex="1">
                    <mxGeometry x="320" y="880" width="480" height="130" as="geometry"/>
                </mxCell>
                <mxCell id="101" value="0" style="rounded=1;whiteSpace=wrap;html=1;strokeColor=none;fillColor=#E6E6E6;" parent="1" vertex="1">
                    <mxGeometry x="360" y="739.96" width="40" height="20" as="geometry"/>
                </mxCell>
                <mxCell id="102" value="1" style="rounded=1;whiteSpace=wrap;html=1;strokeColor=none;fillColor=#E6E6E6;" parent="1" vertex="1">
                    <mxGeometry x="400" y="739.96" width="40" height="20" as="geometry"/>
                </mxCell>
                <mxCell id="103" value="2" style="rounded=1;whiteSpace=wrap;html=1;strokeColor=none;fillColor=#E6E6E6;" parent="1" vertex="1">
                    <mxGeometry x="440" y="739.96" width="40" height="20" as="geometry"/>
                </mxCell>
                <mxCell id="104" value="3" style="rounded=1;whiteSpace=wrap;html=1;strokeColor=none;fillColor=#E6E6E6;" parent="1" vertex="1">
                    <mxGeometry x="480" y="739.96" width="40" height="20" as="geometry"/>
                </mxCell>
                <mxCell id="105" value="4" style="rounded=1;whiteSpace=wrap;html=1;strokeColor=none;fillColor=#E6E6E6;" parent="1" vertex="1">
                    <mxGeometry x="520" y="739.96" width="40" height="20" as="geometry"/>
                </mxCell>
                <mxCell id="106" value="5" style="rounded=1;whiteSpace=wrap;html=1;strokeColor=none;fillColor=#E6E6E6;" parent="1" vertex="1">
                    <mxGeometry x="560" y="739.96" width="40" height="20" as="geometry"/>
                </mxCell>
                <mxCell id="107" value="6" style="rounded=1;whiteSpace=wrap;html=1;strokeColor=none;fillColor=#E6E6E6;" parent="1" vertex="1">
                    <mxGeometry x="600" y="739.96" width="40" height="20" as="geometry"/>
                </mxCell>
                <mxCell id="108" value="索引" style="rounded=1;whiteSpace=wrap;html=1;strokeColor=none;fillColor=#E6E6E6;" parent="1" vertex="1">
                    <mxGeometry x="320" y="739.96" width="40" height="20" as="geometry"/>
                </mxCell>
                <mxCell id="109" value="" style="endArrow=none;html=1;elbow=vertical;entryX=0.96;entryY=0.976;entryDx=0;entryDy=0;entryPerimeter=0;strokeColor=#FF0000;" parent="1" edge="1">
                    <mxGeometry width="50" height="50" relative="1" as="geometry">
                        <mxPoint x="360" y="819.96" as="sourcePoint"/>
                        <mxPoint x="359.96000000000004" y="739" as="targetPoint"/>
                    </mxGeometry>
                </mxCell>
                <mxCell id="114" value="" style="shape=curlyBracket;whiteSpace=wrap;html=1;rounded=1;labelPosition=left;verticalLabelPosition=middle;align=right;verticalAlign=middle;rotation=90;strokeColor=#000000;" parent="1" vertex="1">
                    <mxGeometry x="650" y="627" width="20" height="200" as="geometry"/>
                </mxCell>
                <mxCell id="115" value="" style="shape=curlyBracket;whiteSpace=wrap;html=1;rounded=1;labelPosition=left;verticalLabelPosition=middle;align=right;verticalAlign=middle;rotation=90;strokeColor=#000000;" parent="1" vertex="1">
                    <mxGeometry x="770" y="707" width="20" height="40" as="geometry"/>
                </mxCell>
                <mxCell id="116" value="第1组" style="text;html=1;align=center;verticalAlign=middle;whiteSpace=wrap;rounded=0;" parent="1" vertex="1">
                    <mxGeometry x="430" y="690" width="60" height="30" as="geometry"/>
                </mxCell>
                <mxCell id="117" value="第2组" style="text;html=1;align=center;verticalAlign=middle;whiteSpace=wrap;rounded=0;" parent="1" vertex="1">
                    <mxGeometry x="630" y="690" width="60" height="30" as="geometry"/>
                </mxCell>
                <mxCell id="118" value="第3组" style="text;html=1;align=center;verticalAlign=middle;whiteSpace=wrap;rounded=0;" parent="1" vertex="1">
                    <mxGeometry x="750" y="690" width="60" height="30" as="geometry"/>
                </mxCell>
                <mxCell id="126" value="" style="html=1;shadow=0;dashed=0;align=center;verticalAlign=middle;shape=mxgraph.arrows2.arrow;dy=0.67;dx=21.69;direction=south;notch=0;fillColor=#FF0000;strokeColor=none;" parent="1" vertex="1">
                    <mxGeometry x="560" y="1020" width="30" height="60" as="geometry"/>
                </mxCell>
                <mxCell id="127" value="&lt;b&gt;&lt;font style=&quot;color: rgb(0, 0, 0);&quot;&gt;第2次进行分组&lt;/font&gt;&lt;/b&gt;&lt;div&gt;&lt;b&gt;&lt;font style=&quot;color: rgb(0, 0, 0);&quot;&gt;gap = gap/2 = 3&lt;/font&gt;&lt;/b&gt;&lt;/div&gt;" style="text;html=1;align=left;verticalAlign=middle;whiteSpace=wrap;rounded=0;" parent="1" vertex="1">
                    <mxGeometry x="240" y="1160" width="120" height="40" as="geometry"/>
                </mxCell>
                <mxCell id="128" value="当 gap = 1 的时候，就不需要在进行分组了，剩下所有的元素，按照插入排序直接进行排序。" style="text;html=1;align=left;verticalAlign=middle;whiteSpace=wrap;rounded=0;fontStyle=0" parent="1" vertex="1">
                    <mxGeometry x="360" y="1600" width="360" height="40" as="geometry"/>
                </mxCell>
                <mxCell id="129" value="&lt;font style=&quot;font-size: 24px; color: rgb(255, 255, 255);&quot;&gt;11&lt;/font&gt;" style="rounded=1;whiteSpace=wrap;html=1;resizeHeight=0;strokeOpacity=100;fillOpacity=100;strokeColor=none;gradientColor=none;fillColor=#97D077;" parent="1" vertex="1">
                    <mxGeometry x="360" y="1760" width="40" height="40" as="geometry"/>
                </mxCell>
                <mxCell id="130" value="&lt;font style=&quot;font-size: 24px; color: rgb(255, 255, 255);&quot;&gt;12&lt;/font&gt;" style="rounded=1;whiteSpace=wrap;html=1;resizeHeight=0;strokeOpacity=100;fillOpacity=100;strokeColor=none;gradientColor=none;fillColor=#97D077;" parent="1" vertex="1">
                    <mxGeometry x="400" y="1760" width="40" height="40" as="geometry"/>
                </mxCell>
                <mxCell id="131" value="&lt;font style=&quot;font-size: 24px; color: rgb(255, 255, 255);&quot;&gt;22&lt;/font&gt;" style="rounded=1;whiteSpace=wrap;html=1;resizeHeight=0;strokeOpacity=100;fillOpacity=100;strokeColor=none;gradientColor=none;fillColor=#97D077;" parent="1" vertex="1">
                    <mxGeometry x="440" y="1760" width="40" height="40" as="geometry"/>
                </mxCell>
                <mxCell id="132" value="&lt;font style=&quot;font-size: 24px; color: rgb(255, 255, 255);&quot;&gt;25&lt;/font&gt;" style="rounded=1;whiteSpace=wrap;html=1;resizeHeight=0;strokeOpacity=100;fillOpacity=100;strokeColor=none;gradientColor=none;fillColor=#97D077;" parent="1" vertex="1">
                    <mxGeometry x="480" y="1760" width="40" height="40" as="geometry"/>
                </mxCell>
                <mxCell id="133" value="&lt;font style=&quot;font-size: 24px; color: rgb(255, 255, 255);&quot;&gt;34&lt;/font&gt;" style="rounded=1;whiteSpace=wrap;html=1;resizeHeight=0;strokeOpacity=100;fillOpacity=100;strokeColor=none;gradientColor=none;fillColor=#97D077;" parent="1" vertex="1">
                    <mxGeometry x="520" y="1760" width="40" height="40" as="geometry"/>
                </mxCell>
                <mxCell id="134" value="&lt;font style=&quot;font-size: 24px; color: rgb(255, 255, 255);&quot;&gt;39&lt;/font&gt;" style="rounded=1;whiteSpace=wrap;html=1;resizeHeight=0;strokeOpacity=100;fillOpacity=100;strokeColor=none;gradientColor=none;fillColor=#97D077;" parent="1" vertex="1">
                    <mxGeometry x="560" y="1760" width="40" height="40" as="geometry"/>
                </mxCell>
                <mxCell id="135" value="&lt;font style=&quot;font-size: 24px; color: rgb(255, 255, 255);&quot;&gt;90&lt;/font&gt;" style="rounded=1;whiteSpace=wrap;html=1;resizeHeight=0;strokeOpacity=100;fillOpacity=100;strokeColor=none;gradientColor=none;fillColor=#97D077;" parent="1" vertex="1">
                    <mxGeometry x="760" y="1760" width="40" height="40" as="geometry"/>
                </mxCell>
                <mxCell id="136" value="" style="html=1;shadow=0;dashed=0;align=center;verticalAlign=middle;shape=mxgraph.arrows2.arrow;dy=0.67;dx=21.69;direction=south;notch=0;fillColor=#FF0000;strokeColor=none;" parent="1" vertex="1">
                    <mxGeometry x="560" y="1680" width="30" height="60" as="geometry"/>
                </mxCell>
                <mxCell id="137" value="第1次分组排序后" style="text;html=1;align=center;verticalAlign=middle;whiteSpace=wrap;rounded=0;" parent="1" vertex="1">
                    <mxGeometry x="590" y="1030" width="100" height="30" as="geometry"/>
                </mxCell>
                <mxCell id="138" value="&lt;font style=&quot;color: rgb(0, 0, 0);&quot;&gt;再次进行插入排序，&lt;/font&gt;&lt;div&gt;&lt;font style=&quot;color: rgb(0, 0, 0);&quot;&gt;即可完成排序。&lt;/font&gt;&lt;/div&gt;" style="text;html=1;align=left;verticalAlign=middle;whiteSpace=wrap;rounded=0;" parent="1" vertex="1">
                    <mxGeometry x="590" y="1690" width="125" height="40" as="geometry"/>
                </mxCell>
                <mxCell id="140" value="&lt;b&gt;&lt;font style=&quot;color: rgb(0, 0, 0);&quot;&gt;排序完成&lt;/font&gt;&lt;/b&gt;" style="text;html=1;align=left;verticalAlign=middle;whiteSpace=wrap;rounded=0;" parent="1" vertex="1">
                    <mxGeometry x="240" y="1760" width="120" height="40" as="geometry"/>
                </mxCell>
                <mxCell id="141" value="&lt;font style=&quot;font-size: 24px; color: rgb(255, 255, 255);&quot;&gt;66&lt;/font&gt;" style="rounded=1;whiteSpace=wrap;html=1;resizeHeight=0;strokeOpacity=100;fillOpacity=100;strokeColor=none;gradientColor=none;fillColor=#97D077;" parent="1" vertex="1">
                    <mxGeometry x="640" y="600" width="40" height="40" as="geometry"/>
                </mxCell>
                <mxCell id="142" value="&lt;font style=&quot;font-size: 24px; color: rgb(255, 255, 255);&quot;&gt;39&lt;/font&gt;" style="rounded=1;whiteSpace=wrap;html=1;resizeHeight=0;strokeOpacity=100;fillOpacity=100;strokeColor=none;gradientColor=none;fillColor=#97D077;" parent="1" vertex="1">
                    <mxGeometry x="680" y="600" width="40" height="40" as="geometry"/>
                </mxCell>
                <mxCell id="143" value="&lt;font style=&quot;font-size: 24px; color: rgb(255, 255, 255);&quot;&gt;48&lt;/font&gt;" style="rounded=1;whiteSpace=wrap;html=1;resizeHeight=0;strokeOpacity=100;fillOpacity=100;strokeColor=none;gradientColor=none;fillColor=#97D077;" parent="1" vertex="1">
                    <mxGeometry x="720" y="600" width="40" height="40" as="geometry"/>
                </mxCell>
                <mxCell id="144" value="&lt;font style=&quot;font-size: 24px; color: rgb(255, 255, 255);&quot;&gt;56&lt;/font&gt;" style="rounded=1;whiteSpace=wrap;html=1;resizeHeight=0;strokeOpacity=100;fillOpacity=100;strokeColor=none;gradientColor=none;fillColor=#97D077;" parent="1" vertex="1">
                    <mxGeometry x="760" y="600" width="40" height="40" as="geometry"/>
                </mxCell>
                <mxCell id="145" value="&lt;font style=&quot;font-size: 24px; color: rgb(255, 255, 255);&quot;&gt;66&lt;/font&gt;" style="rounded=1;whiteSpace=wrap;html=1;resizeHeight=0;strokeOpacity=100;fillOpacity=100;strokeColor=none;gradientColor=none;fillColor=#B266FF;" parent="1" vertex="1">
                    <mxGeometry x="640" y="760" width="40" height="40" as="geometry"/>
                </mxCell>
                <mxCell id="146" value="&lt;font style=&quot;font-size: 24px; color: rgb(255, 255, 255);&quot;&gt;39&lt;/font&gt;" style="rounded=1;whiteSpace=wrap;html=1;resizeHeight=0;strokeOpacity=100;fillOpacity=100;strokeColor=none;gradientColor=none;fillColor=#CCCC00;" parent="1" vertex="1">
                    <mxGeometry x="680" y="760" width="40" height="40" as="geometry"/>
                </mxCell>
                <mxCell id="147" value="&lt;font style=&quot;font-size: 24px; color: rgb(255, 255, 255);&quot;&gt;48&lt;/font&gt;" style="rounded=1;whiteSpace=wrap;html=1;resizeHeight=0;strokeOpacity=100;fillOpacity=100;strokeColor=none;gradientColor=none;fillColor=#FF66B3;" parent="1" vertex="1">
                    <mxGeometry x="720" y="760" width="40" height="40" as="geometry"/>
                </mxCell>
                <mxCell id="148" value="&lt;font style=&quot;font-size: 24px; color: rgb(255, 255, 255);&quot;&gt;56&lt;/font&gt;" style="rounded=1;whiteSpace=wrap;html=1;resizeHeight=0;strokeOpacity=100;fillOpacity=100;strokeColor=none;gradientColor=none;fillColor=#66B2FF;" parent="1" vertex="1">
                    <mxGeometry x="760" y="760" width="40" height="40" as="geometry"/>
                </mxCell>
                <mxCell id="149" value="10" style="rounded=1;whiteSpace=wrap;html=1;strokeColor=none;fillColor=#E6E6E6;" parent="1" vertex="1">
                    <mxGeometry x="760" y="739.96" width="40" height="20" as="geometry"/>
                </mxCell>
                <mxCell id="150" value="9" style="rounded=1;whiteSpace=wrap;html=1;strokeColor=none;fillColor=#E6E6E6;" parent="1" vertex="1">
                    <mxGeometry x="720" y="739.96" width="40" height="20" as="geometry"/>
                </mxCell>
                <mxCell id="151" value="8" style="rounded=1;whiteSpace=wrap;html=1;strokeColor=none;fillColor=#E6E6E6;" parent="1" vertex="1">
                    <mxGeometry x="680" y="739.96" width="40" height="20" as="geometry"/>
                </mxCell>
                <mxCell id="152" value="7" style="rounded=1;whiteSpace=wrap;html=1;strokeColor=none;fillColor=#E6E6E6;" parent="1" vertex="1">
                    <mxGeometry x="640" y="739.96" width="40" height="20" as="geometry"/>
                </mxCell>
                <mxCell id="153" value="" style="shape=curlyBracket;whiteSpace=wrap;html=1;rounded=1;labelPosition=left;verticalLabelPosition=middle;align=right;verticalAlign=middle;rotation=90;strokeColor=#000000;" parent="1" vertex="1">
                    <mxGeometry x="450" y="627" width="20" height="200" as="geometry"/>
                </mxCell>
                <mxCell id="154" value="" style="endArrow=none;html=1;elbow=vertical;entryX=0.96;entryY=0.976;entryDx=0;entryDy=0;entryPerimeter=0;strokeColor=#FF0000;" parent="1" edge="1">
                    <mxGeometry width="50" height="50" relative="1" as="geometry">
                        <mxPoint x="560.04" y="819.96" as="sourcePoint"/>
                        <mxPoint x="560" y="739" as="targetPoint"/>
                    </mxGeometry>
                </mxCell>
                <mxCell id="155" value="" style="endArrow=none;html=1;elbow=vertical;entryX=0.96;entryY=0.976;entryDx=0;entryDy=0;entryPerimeter=0;strokeColor=#FF0000;" parent="1" edge="1">
                    <mxGeometry width="50" height="50" relative="1" as="geometry">
                        <mxPoint x="760.04" y="819.96" as="sourcePoint"/>
                        <mxPoint x="760" y="739" as="targetPoint"/>
                    </mxGeometry>
                </mxCell>
                <mxCell id="156" value="" style="endArrow=none;html=1;elbow=vertical;entryX=0.96;entryY=0.976;entryDx=0;entryDy=0;entryPerimeter=0;strokeColor=#FF0000;" parent="1" edge="1">
                    <mxGeometry width="50" height="50" relative="1" as="geometry">
                        <mxPoint x="800.04" y="819.96" as="sourcePoint"/>
                        <mxPoint x="800" y="739" as="targetPoint"/>
                    </mxGeometry>
                </mxCell>
                <mxCell id="207" style="edgeStyle=elbowEdgeStyle;elbow=vertical;html=1;exitX=0.5;exitY=1;exitDx=0;exitDy=0;entryX=0.5;entryY=1;entryDx=0;entryDy=0;strokeColor=#66B2FF;" parent="1" source="163" target="166" edge="1">
                    <mxGeometry relative="1" as="geometry">
                        <Array as="points">
                            <mxPoint x="440" y="1240"/>
                        </Array>
                    </mxGeometry>
                </mxCell>
                <mxCell id="208" style="edgeStyle=elbowEdgeStyle;elbow=vertical;html=1;exitX=0.5;exitY=1;exitDx=0;exitDy=0;entryX=0.5;entryY=1;entryDx=0;entryDy=0;strokeColor=#66B2FF;" parent="1" source="163" target="169" edge="1">
                    <mxGeometry relative="1" as="geometry">
                        <Array as="points">
                            <mxPoint x="500" y="1240"/>
                        </Array>
                    </mxGeometry>
                </mxCell>
                <mxCell id="211" style="edgeStyle=elbowEdgeStyle;elbow=vertical;html=1;exitX=0.5;exitY=1;exitDx=0;exitDy=0;entryX=0.5;entryY=1;entryDx=0;entryDy=0;strokeColor=#66B2FF;" parent="1" source="163" target="172" edge="1">
                    <mxGeometry relative="1" as="geometry">
                        <Array as="points">
                            <mxPoint x="560" y="1240"/>
                        </Array>
                    </mxGeometry>
                </mxCell>
                <mxCell id="163" value="&lt;font style=&quot;font-size: 24px; color: rgb(255, 255, 255);&quot;&gt;11&lt;/font&gt;" style="rounded=1;whiteSpace=wrap;html=1;resizeHeight=0;strokeOpacity=100;fillOpacity=100;strokeColor=none;gradientColor=none;fillColor=#66B2FF;" parent="1" vertex="1">
                    <mxGeometry x="360" y="1160" width="40" height="40" as="geometry"/>
                </mxCell>
                <mxCell id="212" style="edgeStyle=elbowEdgeStyle;elbow=vertical;html=1;exitX=0.5;exitY=1;exitDx=0;exitDy=0;strokeColor=#FF9933;" parent="1" source="164" edge="1">
                    <mxGeometry relative="1" as="geometry">
                        <mxPoint x="540" y="1200.13698630137" as="targetPoint"/>
                        <Array as="points">
                            <mxPoint x="480" y="1230"/>
                        </Array>
                    </mxGeometry>
                </mxCell>
                <mxCell id="213" style="edgeStyle=elbowEdgeStyle;elbow=vertical;html=1;exitX=0.5;exitY=1;exitDx=0;exitDy=0;entryX=0.5;entryY=1;entryDx=0;entryDy=0;strokeColor=#FF9933;" parent="1" source="164" target="170" edge="1">
                    <mxGeometry relative="1" as="geometry">
                        <Array as="points">
                            <mxPoint x="540" y="1230"/>
                        </Array>
                    </mxGeometry>
                </mxCell>
                <mxCell id="214" style="edgeStyle=elbowEdgeStyle;elbow=vertical;html=1;exitX=0.5;exitY=1;exitDx=0;exitDy=0;entryX=0.5;entryY=1;entryDx=0;entryDy=0;strokeColor=#FF9933;" parent="1" source="164" target="173" edge="1">
                    <mxGeometry relative="1" as="geometry">
                        <Array as="points">
                            <mxPoint x="600" y="1230"/>
                        </Array>
                    </mxGeometry>
                </mxCell>
                <mxCell id="164" value="&lt;font style=&quot;font-size: 24px; color: rgb(255, 255, 255);&quot;&gt;34&lt;/font&gt;" style="rounded=1;whiteSpace=wrap;html=1;resizeHeight=0;strokeOpacity=100;fillOpacity=100;strokeColor=none;gradientColor=none;fillColor=#FF9933;" parent="1" vertex="1">
                    <mxGeometry x="400" y="1160" width="40" height="40" as="geometry"/>
                </mxCell>
                <mxCell id="215" style="edgeStyle=elbowEdgeStyle;elbow=vertical;html=1;exitX=0.5;exitY=1;exitDx=0;exitDy=0;entryX=0.5;entryY=1;entryDx=0;entryDy=0;strokeColor=#B266FF;" parent="1" source="165" target="168" edge="1">
                    <mxGeometry relative="1" as="geometry">
                        <Array as="points">
                            <mxPoint x="520" y="1220"/>
                        </Array>
                    </mxGeometry>
                </mxCell>
                <mxCell id="216" style="edgeStyle=elbowEdgeStyle;elbow=vertical;html=1;exitX=0.5;exitY=1;exitDx=0;exitDy=0;entryX=0.5;entryY=1;entryDx=0;entryDy=0;strokeColor=#B266FF;" parent="1" source="165" target="171" edge="1">
                    <mxGeometry relative="1" as="geometry">
                        <Array as="points">
                            <mxPoint x="580" y="1220"/>
                        </Array>
                    </mxGeometry>
                </mxCell>
                <mxCell id="165" value="&lt;font style=&quot;font-size: 24px; color: rgb(255, 255, 255);&quot;&gt;25&lt;/font&gt;" style="rounded=1;whiteSpace=wrap;html=1;resizeHeight=0;strokeOpacity=100;fillOpacity=100;strokeColor=none;gradientColor=none;fillColor=#B266FF;" parent="1" vertex="1">
                    <mxGeometry x="440" y="1160" width="40" height="40" as="geometry"/>
                </mxCell>
                <mxCell id="166" value="&lt;font style=&quot;font-size: 24px; color: rgb(255, 255, 255);&quot;&gt;12&lt;/font&gt;" style="rounded=1;whiteSpace=wrap;html=1;resizeHeight=0;strokeOpacity=100;fillOpacity=100;strokeColor=none;gradientColor=none;fillColor=#66B2FF;" parent="1" vertex="1">
                    <mxGeometry x="480" y="1160" width="40" height="40" as="geometry"/>
                </mxCell>
                <mxCell id="167" value="&lt;font style=&quot;font-size: 24px; color: rgb(255, 255, 255);&quot;&gt;22&lt;/font&gt;" style="rounded=1;whiteSpace=wrap;html=1;resizeHeight=0;strokeOpacity=100;fillOpacity=100;strokeColor=none;gradientColor=none;fillColor=#FF9933;" parent="1" vertex="1">
                    <mxGeometry x="520" y="1160" width="40" height="40" as="geometry"/>
                </mxCell>
                <mxCell id="168" value="&lt;font style=&quot;font-size: 24px; color: rgb(255, 255, 255);&quot;&gt;56&lt;/font&gt;" style="rounded=1;whiteSpace=wrap;html=1;resizeHeight=0;strokeOpacity=100;fillOpacity=100;strokeColor=none;gradientColor=none;fillColor=#B266FF;" parent="1" vertex="1">
                    <mxGeometry x="560" y="1160" width="40" height="40" as="geometry"/>
                </mxCell>
                <mxCell id="169" value="&lt;font style=&quot;font-size: 24px; color: rgb(255, 255, 255);&quot;&gt;90&lt;/font&gt;" style="rounded=1;whiteSpace=wrap;html=1;resizeHeight=0;strokeOpacity=100;fillOpacity=100;strokeColor=none;gradientColor=none;fillColor=#66B2FF;" parent="1" vertex="1">
                    <mxGeometry x="600" y="1160" width="40" height="40" as="geometry"/>
                </mxCell>
                <mxCell id="170" value="&lt;font style=&quot;font-size: 24px; color: rgb(255, 255, 255);&quot;&gt;66&lt;/font&gt;" style="rounded=1;whiteSpace=wrap;html=1;resizeHeight=0;strokeOpacity=100;fillOpacity=100;strokeColor=none;gradientColor=none;fillColor=#FF9933;" parent="1" vertex="1">
                    <mxGeometry x="640" y="1160.04" width="40" height="40" as="geometry"/>
                </mxCell>
                <mxCell id="171" value="&lt;font style=&quot;font-size: 24px; color: rgb(255, 255, 255);&quot;&gt;39&lt;/font&gt;" style="rounded=1;whiteSpace=wrap;html=1;resizeHeight=0;strokeOpacity=100;fillOpacity=100;strokeColor=none;gradientColor=none;fillColor=#B266FF;" parent="1" vertex="1">
                    <mxGeometry x="680" y="1160.04" width="40" height="40" as="geometry"/>
                </mxCell>
                <mxCell id="172" value="&lt;font style=&quot;font-size: 24px; color: rgb(255, 255, 255);&quot;&gt;48&lt;/font&gt;" style="rounded=1;whiteSpace=wrap;html=1;resizeHeight=0;strokeOpacity=100;fillOpacity=100;strokeColor=none;gradientColor=none;fillColor=#66B2FF;" parent="1" vertex="1">
                    <mxGeometry x="720" y="1160.04" width="40" height="40" as="geometry"/>
                </mxCell>
                <mxCell id="173" value="&lt;font style=&quot;font-size: 24px; color: rgb(255, 255, 255);&quot;&gt;64&lt;/font&gt;" style="rounded=1;whiteSpace=wrap;html=1;resizeHeight=0;strokeOpacity=100;fillOpacity=100;strokeColor=none;gradientColor=none;fillColor=#FF9933;" parent="1" vertex="1">
                    <mxGeometry x="760" y="1160.04" width="40" height="40" as="geometry"/>
                </mxCell>
                <mxCell id="174" value="0" style="rounded=1;whiteSpace=wrap;html=1;strokeColor=none;fillColor=#E6E6E6;" parent="1" vertex="1">
                    <mxGeometry x="360" y="1139.96" width="40" height="20" as="geometry"/>
                </mxCell>
                <mxCell id="175" value="1" style="rounded=1;whiteSpace=wrap;html=1;strokeColor=none;fillColor=#E6E6E6;" parent="1" vertex="1">
                    <mxGeometry x="400" y="1139.96" width="40" height="20" as="geometry"/>
                </mxCell>
                <mxCell id="176" value="2" style="rounded=1;whiteSpace=wrap;html=1;strokeColor=none;fillColor=#E6E6E6;" parent="1" vertex="1">
                    <mxGeometry x="440" y="1139.96" width="40" height="20" as="geometry"/>
                </mxCell>
                <mxCell id="177" value="3" style="rounded=1;whiteSpace=wrap;html=1;strokeColor=none;fillColor=#E6E6E6;" parent="1" vertex="1">
                    <mxGeometry x="480" y="1139.96" width="40" height="20" as="geometry"/>
                </mxCell>
                <mxCell id="178" value="4" style="rounded=1;whiteSpace=wrap;html=1;strokeColor=none;fillColor=#E6E6E6;" parent="1" vertex="1">
                    <mxGeometry x="520" y="1139.96" width="40" height="20" as="geometry"/>
                </mxCell>
                <mxCell id="179" value="5" style="rounded=1;whiteSpace=wrap;html=1;strokeColor=none;fillColor=#E6E6E6;" parent="1" vertex="1">
                    <mxGeometry x="560" y="1139.96" width="40" height="20" as="geometry"/>
                </mxCell>
                <mxCell id="180" value="6" style="rounded=1;whiteSpace=wrap;html=1;strokeColor=none;fillColor=#E6E6E6;" parent="1" vertex="1">
                    <mxGeometry x="600" y="1139.96" width="40" height="20" as="geometry"/>
                </mxCell>
                <mxCell id="181" value="索引" style="rounded=1;whiteSpace=wrap;html=1;strokeColor=none;fillColor=#E6E6E6;" parent="1" vertex="1">
                    <mxGeometry x="320" y="1139.96" width="40" height="20" as="geometry"/>
                </mxCell>
                <mxCell id="184" value="第1组" style="text;html=1;align=center;verticalAlign=middle;whiteSpace=wrap;rounded=0;" parent="1" vertex="1">
                    <mxGeometry x="390" y="1091" width="60" height="30" as="geometry"/>
                </mxCell>
                <mxCell id="187" value="10" style="rounded=1;whiteSpace=wrap;html=1;strokeColor=none;fillColor=#E6E6E6;" parent="1" vertex="1">
                    <mxGeometry x="760" y="1139.96" width="40" height="20" as="geometry"/>
                </mxCell>
                <mxCell id="188" value="9" style="rounded=1;whiteSpace=wrap;html=1;strokeColor=none;fillColor=#E6E6E6;" parent="1" vertex="1">
                    <mxGeometry x="720" y="1139.96" width="40" height="20" as="geometry"/>
                </mxCell>
                <mxCell id="189" value="8" style="rounded=1;whiteSpace=wrap;html=1;strokeColor=none;fillColor=#E6E6E6;" parent="1" vertex="1">
                    <mxGeometry x="680" y="1139.96" width="40" height="20" as="geometry"/>
                </mxCell>
                <mxCell id="190" value="7" style="rounded=1;whiteSpace=wrap;html=1;strokeColor=none;fillColor=#E6E6E6;" parent="1" vertex="1">
                    <mxGeometry x="640" y="1139.96" width="40" height="20" as="geometry"/>
                </mxCell>
                <mxCell id="191" value="" style="shape=curlyBracket;whiteSpace=wrap;html=1;rounded=1;labelPosition=left;verticalLabelPosition=middle;align=right;verticalAlign=middle;rotation=90;strokeColor=#000000;" parent="1" vertex="1">
                    <mxGeometry x="410" y="1069" width="20" height="120" as="geometry"/>
                </mxCell>
                <mxCell id="194" value="" style="shape=curlyBracket;whiteSpace=wrap;html=1;rounded=1;labelPosition=left;verticalLabelPosition=middle;align=right;verticalAlign=middle;rotation=90;strokeColor=#000000;" parent="1" vertex="1">
                    <mxGeometry x="530" y="1069" width="20" height="120" as="geometry"/>
                </mxCell>
                <mxCell id="195" value="第2组" style="text;html=1;align=center;verticalAlign=middle;whiteSpace=wrap;rounded=0;" parent="1" vertex="1">
                    <mxGeometry x="510" y="1091" width="60" height="30" as="geometry"/>
                </mxCell>
                <mxCell id="196" value="" style="shape=curlyBracket;whiteSpace=wrap;html=1;rounded=1;labelPosition=left;verticalLabelPosition=middle;align=right;verticalAlign=middle;rotation=90;strokeColor=#000000;" parent="1" vertex="1">
                    <mxGeometry x="650" y="1069" width="20" height="120" as="geometry"/>
                </mxCell>
                <mxCell id="197" value="第3 组" style="text;html=1;align=center;verticalAlign=middle;whiteSpace=wrap;rounded=0;" parent="1" vertex="1">
                    <mxGeometry x="630" y="1091" width="60" height="30" as="geometry"/>
                </mxCell>
                <mxCell id="198" value="" style="shape=curlyBracket;whiteSpace=wrap;html=1;rounded=1;labelPosition=left;verticalLabelPosition=middle;align=right;verticalAlign=middle;rotation=90;strokeColor=#000000;" parent="1" vertex="1">
                    <mxGeometry x="750" y="1089" width="20" height="80" as="geometry"/>
                </mxCell>
                <mxCell id="199" value="第4组" style="text;html=1;align=center;verticalAlign=middle;whiteSpace=wrap;rounded=0;" parent="1" vertex="1">
                    <mxGeometry x="730" y="1091" width="60" height="30" as="geometry"/>
                </mxCell>
                <mxCell id="200" value="" style="endArrow=none;html=1;elbow=vertical;entryX=0.96;entryY=0.976;entryDx=0;entryDy=0;entryPerimeter=0;strokeColor=#FF0000;" parent="1" edge="1">
                    <mxGeometry width="50" height="50" relative="1" as="geometry">
                        <mxPoint x="359.8800000000001" y="1219.92" as="sourcePoint"/>
                        <mxPoint x="359.84000000000015" y="1138.96" as="targetPoint"/>
                    </mxGeometry>
                </mxCell>
                <mxCell id="202" value="" style="endArrow=none;html=1;elbow=vertical;entryX=0.96;entryY=0.976;entryDx=0;entryDy=0;entryPerimeter=0;strokeColor=#FF0000;" parent="1" edge="1">
                    <mxGeometry width="50" height="50" relative="1" as="geometry">
                        <mxPoint x="480.0400000000002" y="1219.92" as="sourcePoint"/>
                        <mxPoint x="480.0000000000002" y="1138.96" as="targetPoint"/>
                    </mxGeometry>
                </mxCell>
                <mxCell id="203" value="" style="endArrow=none;html=1;elbow=vertical;entryX=0.96;entryY=0.976;entryDx=0;entryDy=0;entryPerimeter=0;strokeColor=#FF0000;" parent="1" edge="1">
                    <mxGeometry width="50" height="50" relative="1" as="geometry">
                        <mxPoint x="600.0400000000002" y="1219.92" as="sourcePoint"/>
                        <mxPoint x="600.0000000000002" y="1138.96" as="targetPoint"/>
                    </mxGeometry>
                </mxCell>
                <mxCell id="204" value="" style="endArrow=none;html=1;elbow=vertical;entryX=0.96;entryY=0.976;entryDx=0;entryDy=0;entryPerimeter=0;strokeColor=#FF0000;" parent="1" edge="1">
                    <mxGeometry width="50" height="50" relative="1" as="geometry">
                        <mxPoint x="720.0400000000002" y="1219.92" as="sourcePoint"/>
                        <mxPoint x="720.0000000000002" y="1138.96" as="targetPoint"/>
                    </mxGeometry>
                </mxCell>
                <mxCell id="205" value="" style="endArrow=none;html=1;elbow=vertical;entryX=0.96;entryY=0.976;entryDx=0;entryDy=0;entryPerimeter=0;strokeColor=#FF0000;" parent="1" edge="1">
                    <mxGeometry width="50" height="50" relative="1" as="geometry">
                        <mxPoint x="800.0400000000002" y="1219.92" as="sourcePoint"/>
                        <mxPoint x="800.0000000000002" y="1138.96" as="targetPoint"/>
                    </mxGeometry>
                </mxCell>
                <mxCell id="206" value="分成了4组，每一组3个元素，最后一组只有2个元素。依据 gap，每一组里相同位置的元素，使用插入排序进行比较。&lt;div&gt;&lt;font style=&quot;color: rgb(102, 178, 255);&quot;&gt;第1组里的11，第2组里的12，第3组里的90，第4组里的48，进行比较。&lt;/font&gt;&lt;/div&gt;&lt;div&gt;&lt;font style=&quot;color: rgb(255, 153, 51);&quot;&gt;第1组里的34，第2组里的22，第3组里的66，第4组里的64，进行比较。&lt;/font&gt;&lt;/div&gt;&lt;div&gt;&lt;font style=&quot;color: rgb(178, 102, 255);&quot;&gt;第1组里的25，第2组里的56，第3组里的39，第4组没有对应的元素，无需比较。&lt;/font&gt;&lt;/div&gt;&lt;div&gt;&lt;font style=&quot;color: rgb(0, 0, 0);&quot;&gt;即 &lt;/font&gt;&lt;font style=&quot;color: rgb(102, 178, 255);&quot;&gt;[11, 12, 90, 48]&lt;/font&gt;&lt;font style=&quot;color: rgb(0, 0, 0);&quot;&gt;, &lt;/font&gt;&lt;font style=&quot;color: rgb(255, 153, 51);&quot;&gt;[34, 22, 66, 64]&lt;/font&gt;&lt;font style=&quot;color: rgb(0, 0, 0);&quot;&gt;, &lt;/font&gt;&lt;font style=&quot;color: rgb(178, 102, 255);&quot;&gt;[25, 56, 39]&lt;/font&gt;&lt;font style=&quot;background-color: transparent; color: rgb(178, 102, 255);&quot;&gt;&amp;nbsp;&lt;/font&gt;&lt;span style=&quot;background-color: transparent;&quot;&gt;三个数组内比较排序，将小的数字，放在前边对应的索引位置上。&lt;/span&gt;&lt;/div&gt;" style="text;html=1;align=left;verticalAlign=middle;whiteSpace=wrap;rounded=0;" parent="1" vertex="1">
                    <mxGeometry x="360" y="1280" width="480" height="130" as="geometry"/>
                </mxCell>
                <mxCell id="217" value="&lt;font style=&quot;font-size: 24px; color: rgb(255, 255, 255);&quot;&gt;11&lt;/font&gt;" style="rounded=1;whiteSpace=wrap;html=1;resizeHeight=0;strokeOpacity=100;fillOpacity=100;strokeColor=none;gradientColor=none;fillColor=#66B2FF;" parent="1" vertex="1">
                    <mxGeometry x="360" y="1520" width="40" height="40" as="geometry"/>
                </mxCell>
                <mxCell id="218" value="&lt;font style=&quot;font-size: 24px; color: rgb(255, 255, 255);&quot;&gt;22&lt;/font&gt;" style="rounded=1;whiteSpace=wrap;html=1;resizeHeight=0;strokeOpacity=100;fillOpacity=100;strokeColor=none;gradientColor=none;fillColor=#FF9933;" parent="1" vertex="1">
                    <mxGeometry x="400" y="1520" width="40" height="40" as="geometry"/>
                </mxCell>
                <mxCell id="219" value="&lt;font style=&quot;font-size: 24px; color: rgb(255, 255, 255);&quot;&gt;25&lt;/font&gt;" style="rounded=1;whiteSpace=wrap;html=1;resizeHeight=0;strokeOpacity=100;fillOpacity=100;strokeColor=none;gradientColor=none;fillColor=#B266FF;" parent="1" vertex="1">
                    <mxGeometry x="440" y="1520" width="40" height="40" as="geometry"/>
                </mxCell>
                <mxCell id="220" value="&lt;font style=&quot;font-size: 24px; color: rgb(255, 255, 255);&quot;&gt;12&lt;/font&gt;" style="rounded=1;whiteSpace=wrap;html=1;resizeHeight=0;strokeOpacity=100;fillOpacity=100;strokeColor=none;gradientColor=none;fillColor=#66B2FF;" parent="1" vertex="1">
                    <mxGeometry x="480" y="1520" width="40" height="40" as="geometry"/>
                </mxCell>
                <mxCell id="221" value="&lt;font style=&quot;font-size: 24px; color: rgb(255, 255, 255);&quot;&gt;34&lt;/font&gt;" style="rounded=1;whiteSpace=wrap;html=1;resizeHeight=0;strokeOpacity=100;fillOpacity=100;strokeColor=none;gradientColor=none;fillColor=#FF9933;" parent="1" vertex="1">
                    <mxGeometry x="520" y="1520" width="40" height="40" as="geometry"/>
                </mxCell>
                <mxCell id="222" value="&lt;font style=&quot;font-size: 24px; color: rgb(255, 255, 255);&quot;&gt;39&lt;/font&gt;" style="rounded=1;whiteSpace=wrap;html=1;resizeHeight=0;strokeOpacity=100;fillOpacity=100;strokeColor=none;gradientColor=none;fillColor=#B266FF;" parent="1" vertex="1">
                    <mxGeometry x="560" y="1520" width="40" height="40" as="geometry"/>
                </mxCell>
                <mxCell id="223" value="&lt;font style=&quot;font-size: 24px; color: rgb(255, 255, 255);&quot;&gt;48&lt;/font&gt;" style="rounded=1;whiteSpace=wrap;html=1;resizeHeight=0;strokeOpacity=100;fillOpacity=100;strokeColor=none;gradientColor=none;fillColor=#66B2FF;" parent="1" vertex="1">
                    <mxGeometry x="600" y="1520" width="40" height="40" as="geometry"/>
                </mxCell>
                <mxCell id="224" value="&lt;font style=&quot;font-size: 24px; color: rgb(255, 255, 255);&quot;&gt;64&lt;/font&gt;" style="rounded=1;whiteSpace=wrap;html=1;resizeHeight=0;strokeOpacity=100;fillOpacity=100;strokeColor=none;gradientColor=none;fillColor=#FF9933;" parent="1" vertex="1">
                    <mxGeometry x="640" y="1520.04" width="40" height="40" as="geometry"/>
                </mxCell>
                <mxCell id="225" value="&lt;font style=&quot;font-size: 24px; color: rgb(255, 255, 255);&quot;&gt;56&lt;/font&gt;" style="rounded=1;whiteSpace=wrap;html=1;resizeHeight=0;strokeOpacity=100;fillOpacity=100;strokeColor=none;gradientColor=none;fillColor=#B266FF;" parent="1" vertex="1">
                    <mxGeometry x="680" y="1520.04" width="40" height="40" as="geometry"/>
                </mxCell>
                <mxCell id="226" value="&lt;font style=&quot;font-size: 24px; color: rgb(255, 255, 255);&quot;&gt;90&lt;/font&gt;" style="rounded=1;whiteSpace=wrap;html=1;resizeHeight=0;strokeOpacity=100;fillOpacity=100;strokeColor=none;gradientColor=none;fillColor=#66B2FF;" parent="1" vertex="1">
                    <mxGeometry x="720" y="1520.04" width="40" height="40" as="geometry"/>
                </mxCell>
                <mxCell id="227" value="&lt;font style=&quot;font-size: 24px; color: rgb(255, 255, 255);&quot;&gt;66&lt;/font&gt;" style="rounded=1;whiteSpace=wrap;html=1;resizeHeight=0;strokeOpacity=100;fillOpacity=100;strokeColor=none;gradientColor=none;fillColor=#FF9933;" parent="1" vertex="1">
                    <mxGeometry x="760" y="1520.04" width="40" height="40" as="geometry"/>
                </mxCell>
                <mxCell id="230" value="" style="html=1;shadow=0;dashed=0;align=center;verticalAlign=middle;shape=mxgraph.arrows2.arrow;dy=0.67;dx=21.69;direction=south;notch=0;fillColor=#FF0000;strokeColor=none;" parent="1" vertex="1">
                    <mxGeometry x="562.5" y="1440" width="30" height="60" as="geometry"/>
                </mxCell>
                <mxCell id="231" value="第2次分组排序后" style="text;html=1;align=center;verticalAlign=middle;whiteSpace=wrap;rounded=0;" parent="1" vertex="1">
                    <mxGeometry x="590" y="1450" width="100" height="30" as="geometry"/>
                </mxCell>
                <mxCell id="232" value="&lt;b&gt;&lt;font style=&quot;color: rgb(0, 0, 0);&quot;&gt;第3次进行分组&lt;/font&gt;&lt;/b&gt;&lt;div&gt;&lt;b&gt;&lt;font style=&quot;color: rgb(0, 0, 0);&quot;&gt;gap = gap/2 = 1&lt;/font&gt;&lt;/b&gt;&lt;/div&gt;" style="text;html=1;align=left;verticalAlign=middle;whiteSpace=wrap;rounded=0;" parent="1" vertex="1">
                    <mxGeometry x="240" y="1520" width="120" height="40" as="geometry"/>
                </mxCell>
                <mxCell id="233" value="&lt;font style=&quot;font-size: 24px; color: rgb(255, 255, 255);&quot;&gt;64&lt;/font&gt;" style="rounded=1;whiteSpace=wrap;html=1;resizeHeight=0;strokeOpacity=100;fillOpacity=100;strokeColor=none;gradientColor=none;fillColor=#97D077;" parent="1" vertex="1">
                    <mxGeometry x="680" y="1760" width="40" height="40" as="geometry"/>
                </mxCell>
                <mxCell id="234" value="&lt;font style=&quot;font-size: 24px; color: rgb(255, 255, 255);&quot;&gt;56&lt;/font&gt;" style="rounded=1;whiteSpace=wrap;html=1;resizeHeight=0;strokeOpacity=100;fillOpacity=100;strokeColor=none;gradientColor=none;fillColor=#97D077;" parent="1" vertex="1">
                    <mxGeometry x="640" y="1760" width="40" height="40" as="geometry"/>
                </mxCell>
                <mxCell id="235" value="&lt;font style=&quot;font-size: 24px; color: rgb(255, 255, 255);&quot;&gt;48&lt;/font&gt;" style="rounded=1;whiteSpace=wrap;html=1;resizeHeight=0;strokeOpacity=100;fillOpacity=100;strokeColor=none;gradientColor=none;fillColor=#97D077;" parent="1" vertex="1">
                    <mxGeometry x="600" y="1760" width="40" height="40" as="geometry"/>
                </mxCell>
                <mxCell id="236" value="&lt;font style=&quot;font-size: 24px; color: rgb(255, 255, 255);&quot;&gt;66&lt;/font&gt;" style="rounded=1;whiteSpace=wrap;html=1;resizeHeight=0;strokeOpacity=100;fillOpacity=100;strokeColor=none;gradientColor=none;fillColor=#97D077;" parent="1" vertex="1">
                    <mxGeometry x="720" y="1760" width="40" height="40" as="geometry"/>
                </mxCell>
            </root>
        </mxGraphModel>
    </diagram>
</mxfile>